<?xml version="1.0" standalone="no"?>
<!DOCTYPE svg PUBLIC "-//W3C//DTD SVG 20010904//EN"
 "http://www.w3.org/TR/2001/REC-SVG-20010904/DTD/svg10.dtd">
<svg version="1.0" xmlns="http://www.w3.org/2000/svg"
 width="512.000000pt" height="512.000000pt" viewBox="0 0 512.000000 512.000000"
 preserveAspectRatio="xMidYMid meet">
<metadata>
Created by potrace 1.16, written by Peter Selinger 2001-2019
</metadata>
<g transform="translate(0.000000,512.000000) scale(0.100000,-0.100000)"
fill="#000000" stroke="none">
<path d="M2255 5000 c-3 -5 -35 -10 -70 -10 -35 0 -67 -4 -70 -10 -3 -5 -26
-10 -50 -10 -24 0 -47 -4 -50 -10 -3 -5 -21 -10 -40 -10 -19 0 -37 -4 -40 -10
-3 -5 -21 -10 -40 -10 -19 0 -37 -4 -40 -10 -3 -5 -17 -10 -30 -10 -13 0 -27
-4 -30 -10 -3 -5 -17 -10 -30 -10 -13 0 -27 -4 -30 -10 -3 -5 -15 -10 -25 -10
-11 0 -35 -9 -55 -20 -20 -11 -41 -20 -48 -20 -12 0 -297 -139 -307 -150 -3
-3 -15 -11 -27 -17 -56 -32 -68 -39 -87 -55 -11 -10 -24 -18 -28 -18 -5 0 -18
-9 -30 -20 -12 -11 -28 -20 -35 -20 -7 0 -13 -4 -13 -8 0 -4 -13 -15 -28 -24
-16 -10 -51 -38 -78 -63 -27 -24 -53 -45 -57 -45 -12 0 -269 -260 -297 -300
-13 -19 -32 -42 -42 -51 -10 -9 -18 -20 -18 -25 0 -5 -14 -23 -30 -41 -17 -18
-30 -36 -30 -40 0 -4 -14 -24 -30 -43 -16 -19 -30 -41 -30 -47 0 -7 -4 -13
-10 -13 -5 0 -10 -6 -10 -13 0 -7 -9 -23 -20 -35 -11 -12 -20 -28 -20 -36 0
-8 -3 -16 -8 -18 -10 -4 -152 -289 -152 -305 0 -7 -9 -28 -20 -48 -11 -20 -20
-42 -20 -50 0 -9 -4 -23 -9 -33 -15 -30 -51 -149 -51 -170 0 -12 -4 -23 -9
-26 -5 -3 -11 -23 -14 -43 -3 -21 -11 -63 -17 -93 -6 -30 -14 -82 -17 -115 -2
-33 -9 -64 -14 -69 -13 -14 -12 -603 1 -611 6 -3 10 -35 10 -70 0 -35 5 -67
10 -70 6 -3 10 -26 10 -50 0 -24 4 -47 10 -50 6 -3 10 -20 10 -37 0 -31 15
-87 31 -120 5 -10 9 -27 9 -37 0 -11 5 -23 10 -26 5 -3 10 -17 10 -30 0 -13 5
-27 10 -30 6 -3 10 -17 10 -30 0 -13 5 -27 10 -30 6 -3 10 -14 10 -24 0 -10
14 -47 31 -82 18 -35 35 -73 39 -84 27 -66 36 -85 42 -85 5 0 8 -9 8 -20 0
-11 4 -20 9 -20 4 0 23 -30 42 -68 19 -37 42 -76 51 -86 10 -11 18 -24 18 -28
0 -5 9 -18 20 -30 11 -12 20 -28 20 -35 0 -7 4 -13 8 -13 4 0 16 -13 25 -30
10 -16 23 -35 30 -42 7 -7 24 -29 37 -48 63 -90 288 -314 411 -410 24 -19 46
-38 47 -42 2 -4 8 -8 13 -8 7 0 60 -37 119 -83 8 -7 36 -23 63 -36 26 -13 47
-28 47 -33 0 -4 9 -8 19 -8 11 0 21 -3 23 -8 3 -7 233 -122 288 -144 14 -6 33
-14 42 -19 10 -5 27 -9 37 -9 11 0 23 -4 26 -10 3 -5 17 -10 30 -10 13 0 27
-4 30 -10 3 -5 17 -10 30 -10 13 0 27 -4 30 -10 3 -5 17 -10 30 -10 13 0 27
-4 30 -10 3 -5 21 -10 39 -10 17 0 38 -6 44 -12 19 -19 1135 -19 1153 -1 7 7
28 13 45 13 18 0 36 5 39 10 3 5 21 10 40 10 19 0 37 5 40 10 3 6 17 10 30 10
13 0 27 5 30 10 3 6 15 10 25 10 11 0 35 9 55 20 20 11 42 20 50 20 8 0 30 9
50 20 20 11 44 20 55 20 11 0 20 5 20 10 0 6 9 10 20 10 11 0 20 5 20 10 0 6
9 10 20 10 11 0 20 5 20 10 0 6 9 10 20 10 11 0 20 5 20 10 0 6 9 10 20 10 11
0 20 4 20 9 0 5 8 11 18 14 21 7 71 37 90 54 7 7 30 20 50 30 20 9 39 20 42
23 3 3 21 17 40 30 19 13 37 27 40 30 3 3 21 17 40 30 19 13 53 41 75 62 22
21 43 38 48 38 10 0 226 218 260 263 16 21 38 47 50 60 13 12 33 38 47 57 13
19 27 37 30 40 13 10 110 159 110 169 0 5 3 11 8 13 4 1 18 24 31 51 13 26 28
47 33 47 4 0 8 9 8 20 0 11 5 20 10 20 6 0 10 6 10 14 0 8 8 31 19 53 10 21
33 67 50 102 17 35 31 70 31 76 0 7 8 30 19 52 24 49 61 165 61 191 0 12 5 24
10 27 6 3 10 21 10 40 0 19 4 36 9 39 9 6 17 47 27 141 3 28 10 54 15 59 5 6
9 47 9 92 0 46 5 86 10 89 14 8 14 402 0 410 -5 3 -10 39 -10 80 0 41 -4 77
-10 80 -5 3 -10 30 -10 60 0 30 -4 57 -10 60 -5 3 -10 26 -10 50 0 24 -4 47
-10 50 -5 3 -10 21 -10 40 0 19 -4 37 -10 40 -6 3 -10 17 -10 30 0 13 -4 27
-10 30 -5 3 -10 17 -10 30 0 13 -4 27 -10 30 -5 3 -10 17 -10 30 0 13 -4 27
-10 30 -5 3 -10 15 -10 26 0 10 -4 27 -9 37 -5 9 -13 28 -19 42 -22 55 -137
285 -144 288 -5 2 -8 12 -8 23 0 10 -4 19 -10 19 -5 0 -10 5 -10 10 0 12 -95
155 -122 184 -10 11 -18 25 -18 32 0 7 -4 14 -8 16 -4 2 -23 23 -42 47 -99
127 -318 346 -410 411 -19 13 -41 30 -48 37 -7 7 -26 20 -42 30 -17 9 -30 21
-30 25 0 4 -6 8 -13 8 -7 0 -23 9 -35 20 -12 11 -25 20 -30 20 -4 0 -17 8 -28
18 -17 15 -69 45 -131 76 -13 6 -23 14 -23 19 0 4 -9 7 -20 7 -11 0 -20 5 -20
10 0 6 -9 10 -20 10 -11 0 -20 5 -20 10 0 6 -9 10 -20 10 -11 0 -20 5 -20 10
0 6 -9 10 -20 10 -11 0 -20 5 -20 10 0 6 -9 10 -20 10 -11 0 -35 9 -55 20 -20
11 -44 20 -55 20 -10 0 -22 5 -25 10 -3 6 -17 10 -30 10 -13 0 -27 5 -30 10
-3 6 -17 10 -30 10 -13 0 -27 5 -30 10 -3 6 -17 10 -30 10 -13 0 -27 5 -30 10
-3 6 -21 10 -40 10 -19 0 -37 5 -40 10 -3 6 -21 10 -40 10 -19 0 -37 5 -40 10
-3 6 -26 10 -50 10 -24 0 -47 5 -50 10 -3 6 -35 10 -70 10 -35 0 -67 5 -70 10
-4 6 -115 10 -300 10 -185 0 -296 -4 -300 -10z m680 -119 c66 -12 170 -35 231
-51 110 -28 321 -103 336 -118 15 -15 -517 -377 -742 -504 -25 -14 -85 -49
-135 -78 -174 -102 -477 -251 -665 -327 -47 -19 -94 -39 -105 -43 -11 -5 -45
-16 -75 -26 -30 -10 -59 -21 -65 -25 -5 -4 -28 -10 -50 -14 -22 -4 -44 -11
-50 -15 -9 -7 -54 -17 -97 -23 -46 -6 -7 27 148 125 93 59 180 113 194 120 13
7 63 35 110 62 203 116 601 309 880 428 50 21 55 25 58 52 5 39 -23 74 -76 97
-41 18 -62 20 -172 16 -259 -9 -556 -87 -910 -239 -25 -10 -54 -23 -65 -28
-11 -4 -46 -20 -78 -34 -32 -14 -60 -26 -62 -26 -7 0 -192 -88 -335 -158 -132
-66 -398 -212 -482 -266 l-58 -37 0 -79 c0 -48 -4 -80 -10 -80 -6 0 -8 11 -6
25 3 14 1 23 -4 20 -4 -3 -10 -2 -13 2 -2 5 -2 2 -1 -4 2 -7 -2 -13 -8 -13 -7
0 -7 -4 1 -13 6 -8 8 -17 4 -20 -3 -4 -1 -7 5 -7 7 0 11 -3 10 -7 0 -5 3 -17
7 -27 6 -13 4 -21 -3 -24 -16 -5 -16 -42 0 -42 9 0 9 -3 0 -12 -16 -16 -15
-28 3 -28 12 0 15 -16 15 -81 0 -51 -4 -78 -10 -74 -5 3 -11 -4 -12 -17 0 -13
-4 -3 -8 22 l-7 45 -1 -48 c-1 -31 -6 -46 -13 -42 -13 8 -1 -211 13 -237 8
-17 4 -22 -16 -19 -5 1 -1 -10 8 -25 13 -19 15 -29 7 -37 -8 -8 -11 -6 -11 6
0 12 -8 17 -27 17 -25 0 -26 0 -8 -20 10 -11 26 -20 37 -20 10 0 18 -4 18 -9
0 -5 19 -12 42 -16 24 -4 49 -12 56 -17 16 -14 374 -4 427 12 22 6 58 16 80
22 48 12 222 66 250 77 11 5 40 16 65 26 68 26 76 30 203 90 65 30 122 55 127
55 4 0 10 3 12 8 2 4 23 17 48 30 25 12 63 33 85 45 22 12 72 40 110 62 287
161 844 550 1015 710 309 287 483 531 442 620 -6 14 -8 25 -4 25 13 0 253
-142 317 -188 525 -376 873 -941 970 -1577 23 -147 30 -398 16 -545 -80 -834
-567 -1544 -1306 -1905 -233 -114 -458 -184 -714 -222 -158 -23 -484 -23 -642
0 -515 76 -979 307 -1339 667 -389 389 -627 899 -681 1460 -14 147 -7 398 16
545 108 705 518 1315 1128 1677 260 154 548 257 849 302 156 24 167 24 393 21
158 -2 240 -8 330 -24z"/>
<path d="M4785 2002 c-17 -15 -51 -43 -75 -62 -24 -19 -58 -47 -75 -61 -88
-75 -511 -358 -585 -392 -8 -4 -28 -15 -45 -25 -115 -71 -516 -272 -541 -272
-3 0 -30 -11 -59 -25 -30 -13 -66 -27 -80 -31 -14 -3 -28 -10 -31 -15 -3 -5
-12 -9 -21 -9 -8 0 -29 -6 -46 -14 -45 -20 -157 -59 -262 -91 -49 -16 -109
-34 -133 -42 -23 -7 -49 -13 -57 -13 -9 0 -23 -4 -33 -9 -23 -12 -145 -41
-171 -41 -12 0 -30 -5 -41 -12 -24 -15 -37 -4 -20 17 29 35 344 254 575 400
28 17 69 43 93 58 23 15 42 34 42 43 0 50 -54 84 -133 84 -112 0 -351 -77
-577 -187 -143 -69 -614 -364 -769 -482 l-33 -25 23 -9 c13 -6 48 -20 77 -33
29 -13 58 -24 65 -24 7 0 17 -4 23 -8 5 -4 34 -16 64 -26 30 -10 64 -22 75
-26 11 -5 38 -14 60 -20 22 -6 56 -16 75 -21 117 -33 312 -63 410 -64 70 0
307 35 375 55 17 5 57 17 90 26 141 38 369 136 555 240 60 34 258 161 270 174
3 3 32 25 65 49 204 151 456 387 660 621 32 37 161 199 209 263 33 43 24 48
-19 9z"/>
</g>
</svg>
